<svg height="512pt" viewBox="0 0 512.00001 512" width="512pt" xmlns="http://www.w3.org/2000/svg"><path d="m399.839844 336.558594h24.367187c4.203125 0 7.613281-3.410156 7.613281-7.617188 0-4.203125-3.410156-7.613281-7.613281-7.613281h-24.367187c-4.203125 0-7.613282 3.410156-7.613282 7.613281 0 4.207032 3.410157 7.617188 7.613282 7.617188zm0 0"/><path d="m504.386719 215.027344h-48.109375v-29.582032c0-.007812 0-.011718 0-.019531v-37.027343c0-.007813 0-.015626 0-.019532v-9.296875c0-21.035156-17.113282-38.152343-38.144532-38.152343h-135.78125v-67.621094c0-18.367188-14.949218-33.308594-33.320312-33.308594h-167.609375c-18.371094 0-33.320313 14.941406-33.320313 33.308594v125.632812c-12.441406.863282-24.027343 6.109375-32.933593 15.019532-9.746094 9.746093-15.1250002 22.695312-15.1601565 36.472656 0 .046875-.0078125.089844-.0078125.136718v249.65625c0 28.546876 23.226562 51.769532 51.773438 51.769532h232.097656c4.203125 0 7.613281-3.40625 7.613281-7.613282 0-4.203124-3.410156-7.613281-7.613281-7.613281h-232.097656c-20.152344 0-36.546876-16.394531-36.546876-36.542969v-213.023437c9.371094 9.347656 22.292969 15.136719 36.542969 15.136719l287.539063.003906c16.449218 0 29.832031 13.382812 29.832031 29.832031v111.082031.019532.019531 31.929687.019532.019531 31.667969c0 16.449218-13.382813 29.835937-29.832031 29.835937h-30.058594c-4.203125 0-7.613281 3.40625-7.613281 7.613281 0 4.203126 3.410156 7.613282 7.613281 7.613282h30.058594c24.847656 0 45.0625-20.214844 45.0625-45.0625v-24.074219h120.015625c4.203125 0 7.613281-3.410156 7.613281-7.613281v-212.605469c0-4.203125-3.40625-7.613281-7.613281-7.613281zm-321.707031 0v-21.988282h258.367187v21.988282zm258.367187-75.945313v1.699219h-73.429687c-4.203126 0-7.613282 3.410156-7.613282 7.617188 0 4.203124 3.410156 7.613281 7.613282 7.613281h73.429687v21.800781h-258.367187v-21.800781h159.558593c4.203125 0 7.613281-3.410157 7.613281-7.613281 0-4.207032-3.410156-7.617188-7.613281-7.617188h-159.558593v-4.054688c0-11.339843 9.222656-20.566406 20.558593-20.566406h214.894531c12.636719 0 22.914063 10.28125 22.914063 22.921875zm-377.714844-105.773437c0-9.972656 8.113281-18.082032 18.089844-18.082032h167.609375c9.976562 0 18.09375 8.113282 18.09375 18.082032v67.621094h-6.183594v-35.390626c0-11.34375-9.238281-20.578124-20.589844-20.578124h-150.257812c-11.347656 0-20.578125 9.234374-20.578125 20.578124v27.078126c0 4.203124 3.40625 7.613281 7.613281 7.613281 4.203125 0 7.613282-3.410157 7.613282-7.613281v-27.078126c0-2.949218 2.398437-5.347656 5.351562-5.347656h150.257812c2.957032 0 5.359376 2.398438 5.359376 5.347656v35.390626h-42.472657c-19.734375 0-35.789062 16.058593-35.789062 35.796874v78.300782h-32.550781c-4.203126 0-7.613282 3.410156-7.613282 7.617187v24.46875l-42.542968-.003906v-129.804687c0-4.203126-3.410157-7.613282-7.613282-7.613282-4.207031 0-7.613281 3.410156-7.613281 7.613282v129.804687h-6.183594zm-48.101562 177.261718c0-9.761718 3.800781-18.9375 10.703125-25.84375 6.03125-6.027343 13.796875-9.691406 22.167968-10.519531v72.71875c-18.429687-1.84375-32.871093-17.445312-32.871093-36.355469zm357.707031 51.65625h53.183594c3.242187 19.777344 18.902344 35.4375 38.683594 38.679688v56.078125c-19.78125 3.242187-35.441407 18.898437-38.683594 38.679687h-41.75v-103.488281c0-11.488281-4.328125-21.980469-11.433594-29.949219zm123.835938 165.40625h-112.402344v-16.742187h48.746094c4.207031 0 7.617187-3.40625 7.617187-7.613281 0-17.46875 14.210937-31.683594 31.683594-31.683594 4.203125 0 7.613281-3.410156 7.613281-7.613281v-70.070313c0-4.203125-3.410156-7.613281-7.613281-7.613281-17.472657 0-31.683594-14.214844-31.683594-31.683594 0-4.207031-3.410156-7.617187-7.617187-7.617187l-290.605469.117187v-16.855469h354.261719zm0 0"/><path d="m465.390625 257.519531c1.0625 2.71875 3.8125 4.578125 6.707031 4.695313 3.226563.128906 6.261719-1.855469 7.417969-4.867188 1.1875-3.09375.199219-6.707031-2.421875-8.734375-2.511719-1.949219-6.023438-2.125-8.722656-.445312-3.097656 1.929687-4.40625 5.976562-2.980469 9.351562zm0 0"/><path d="m479.449219 400.359375c-1.234375-2.925781-4.226563-4.855469-7.410157-4.679687-3.121093.167968-5.855468 2.25-6.84375 5.210937-2.242187 6.703125 5.558594 12.652344 11.441407 8.71875 3.023437-2.023437 4.125-5.898437 2.8125-9.25zm0 0"/><path d="m341.734375 377.566406c0-20.152344-16.394531-36.546875-36.546875-36.546875s-36.546875 16.394531-36.546875 36.546875c0 20.148438 16.394531 36.542969 36.546875 36.542969s36.546875-16.394531 36.546875-36.542969zm-57.863281 0c0-11.757812 9.5625-21.320312 21.316406-21.320312 11.757812 0 21.320312 9.5625 21.320312 21.320312 0 11.753906-9.5625 21.316406-21.320312 21.316406-11.753906 0-21.316406-9.5625-21.316406-21.316406zm0 0"/></svg>
