<svg height="512pt" viewBox="0 0 512 512" width="512pt" xmlns="http://www.w3.org/2000/svg"><path d="M399.84 336.559h24.367a7.616 7.616 0 0 0 0-15.23H399.84a7.615 7.615 0 0 0 0 15.23zm0 0"/><path d="M504.387 215.027h-48.11v-75.945c0-21.035-17.113-38.152-38.144-38.152H282.352V33.309C282.352 14.94 267.402 0 249.032 0H81.421c-18.371 0-33.32 14.941-33.32 33.309V158.94c-12.442.864-24.028 6.11-32.934 15.02C5.422 183.707.043 196.656.008 210.434c0 .046-.008.09-.008.136v249.657c0 28.546 23.227 51.77 51.773 51.77h232.098a7.613 7.613 0 1 0 0-15.227H51.773c-20.152 0-36.546-16.395-36.546-36.543V247.203c9.37 9.348 22.293 15.137 36.543 15.137l287.539.004c16.449 0 29.832 13.383 29.832 29.832v174.758c0 16.449-13.383 29.836-29.832 29.836H309.25a7.613 7.613 0 1 0 0 15.226h30.059c24.847 0 45.062-20.215 45.062-45.062v-24.075h120.016a7.615 7.615 0 0 0 7.613-7.613V222.641a7.613 7.613 0 0 0-7.613-7.614zm-321.707 0V193.04h258.367v21.988zm258.367-75.945v1.7h-73.43a7.616 7.616 0 0 0 0 15.23h73.43v21.8H182.68v-21.8h159.558a7.615 7.615 0 0 0 0-15.23H182.68v-4.055c0-11.34 9.222-20.567 20.558-20.567h214.895c12.637 0 22.914 10.281 22.914 22.922zM63.332 33.309c0-9.973 8.113-18.082 18.09-18.082h167.61c9.976 0 18.093 8.113 18.093 18.082v67.62h-6.184V65.54c0-11.344-9.238-20.578-20.59-20.578H90.095c-11.348 0-20.578 9.234-20.578 20.578v27.078a7.613 7.613 0 1 0 15.226 0V65.54a5.354 5.354 0 0 1 5.352-5.348h150.258c2.957 0 5.359 2.399 5.359 5.348v35.39h-42.473c-19.734 0-35.789 16.06-35.789 35.798v78.3H134.9a7.616 7.616 0 0 0-7.614 7.618v24.468l-42.543-.004V117.305a7.613 7.613 0 1 0-15.227 0v129.804h-6.183zM15.23 210.57c0-9.761 3.801-18.937 10.704-25.843 6.03-6.028 13.796-9.692 22.168-10.52v72.719c-18.43-1.844-32.872-17.446-32.872-36.356zm357.707 51.657h53.184c3.242 19.777 18.902 35.437 38.684 38.68v56.077c-19.782 3.243-35.442 18.899-38.684 38.68h-41.75V292.176c0-11.488-4.328-21.98-11.434-29.95zm123.836 165.406H384.371V410.89h48.746a7.614 7.614 0 0 0 7.617-7.614c0-17.468 14.211-31.683 31.684-31.683a7.615 7.615 0 0 0 7.613-7.614v-70.07a7.615 7.615 0 0 0-7.613-7.613c-17.473 0-31.684-14.215-31.684-31.684a7.617 7.617 0 0 0-7.617-7.617l-290.605.117v-16.855h354.261zm0 0"/><path d="M465.39 257.52c1.063 2.718 3.813 4.578 6.708 4.695 3.226.129 6.261-1.856 7.418-4.867 1.187-3.094.199-6.707-2.422-8.735-2.512-1.949-6.024-2.125-8.723-.445-3.098 1.93-4.406 5.977-2.98 9.352zm14.06 142.84c-1.235-2.926-4.227-4.856-7.41-4.68a7.677 7.677 0 0 0-6.845 5.21c-2.242 6.704 5.559 12.653 11.442 8.72 3.023-2.024 4.125-5.9 2.812-9.25zm-137.716-22.794c0-20.152-16.394-36.546-36.546-36.546s-36.547 16.394-36.547 36.546c0 20.149 16.394 36.543 36.546 36.543s36.547-16.394 36.547-36.543zm-57.863 0c0-11.757 9.563-21.32 21.316-21.32 11.758 0 21.32 9.563 21.32 21.32 0 11.754-9.562 21.317-21.32 21.317-11.753 0-21.316-9.563-21.316-21.317zm0 0"/></svg>